<svg xmlns="http://www.w3.org/2000/svg" viewBox="0 0 19 18" width="19" height="18">
	<style>
		tspan { white-space:pre }
		.shp0 { fill: #707070 } 
	</style>
	<path id="Caminho 14" fill-rule="evenodd" class="shp0" d="M18.81 9.92L18.81 16.04C18.81 16.73 18.25 17.29 17.57 17.29L12.67 17.29C11.99 17.29 11.43 16.73 11.43 16.04L11.43 12.35C11.43 11.44 10.7 10.7 9.79 10.7C8.89 10.7 8.15 11.44 8.15 12.35L8.15 16.04C8.15 16.73 7.6 17.29 6.91 17.29L2.02 17.29C1.33 17.29 0.78 16.73 0.78 16.04L0.78 9.92C0.78 9.37 1 8.84 1.38 8.45L8.98 0.82C9.2 0.6 9.5 0.48 9.79 0.48C10.09 0.48 10.38 0.6 10.61 0.82L18.2 8.45C18.59 8.84 18.81 9.37 18.81 9.92ZM17.99 9.92C17.99 9.58 17.86 9.27 17.62 9.03L10.03 1.41C9.94 1.32 9.84 1.31 9.79 1.31C9.74 1.31 9.64 1.32 9.55 1.41L1.96 9.03C1.73 9.27 1.6 9.58 1.6 9.92L1.6 16.04C1.6 16.28 1.79 16.47 2.02 16.47L6.91 16.47C7.14 16.47 7.33 16.28 7.33 16.04L7.33 12.35C7.33 10.99 8.44 9.88 9.79 9.88C11.15 9.88 12.25 10.99 12.25 12.35L12.25 16.04C12.25 16.28 12.44 16.47 12.67 16.47L17.57 16.47C17.8 16.47 17.99 16.28 17.99 16.04L17.99 9.92Z" />
</svg>