<svg xmlns="http://www.w3.org/2000/svg" viewBox="0 0 15 15" width="15" height="15">
	<style>
		tspan { white-space:pre }
		.shp0 { fill: #707070 } 
	</style>
	<path id="Icon ionic-ios-settings" fill-rule="evenodd" class="shp0" d="M14.39 9.16C14.22 9.89 13.92 10.59 13.54 11.21C13.31 11.11 13.07 11.06 12.82 11.06C12.37 11.06 11.91 11.23 11.57 11.58C11.04 12.11 10.91 12.9 11.2 13.55C10.58 13.93 9.89 14.22 9.15 14.4C8.9 13.74 8.25 13.27 7.5 13.27C6.75 13.27 6.1 13.74 5.85 14.4C5.12 14.22 4.42 13.93 3.8 13.55C4.09 12.9 3.96 12.11 3.43 11.58C3.08 11.23 2.63 11.06 2.18 11.06C1.93 11.06 1.69 11.11 1.46 11.21C1.08 10.59 0.78 9.9 0.61 9.16C1.27 8.9 1.74 8.26 1.74 7.51C1.74 6.75 1.27 6.1 0.61 5.85C0.78 5.11 1.07 4.42 1.45 3.8C1.68 3.9 1.93 3.95 2.17 3.95C2.63 3.95 3.08 3.78 3.43 3.43C3.96 2.9 4.09 2.11 3.79 1.46C4.42 1.07 5.11 0.78 5.84 0.61C6.1 1.27 6.75 1.75 7.5 1.75C8.25 1.75 8.9 1.27 9.16 0.61C9.89 0.78 10.58 1.07 11.2 1.46C10.91 2.11 11.03 2.9 11.57 3.43C11.92 3.78 12.37 3.95 12.82 3.95C13.07 3.95 13.31 3.9 13.54 3.8C13.93 4.42 14.22 5.11 14.39 5.85C13.73 6.1 13.26 6.75 13.26 7.5C13.26 8.26 13.73 8.9 14.39 9.16ZM10.4 7.5C10.4 5.91 9.12 4.63 7.53 4.63C5.94 4.63 4.66 5.91 4.66 7.5C4.66 9.08 5.94 10.37 7.53 10.37C9.12 10.37 10.4 9.08 10.4 7.5Z" />
</svg>