<svg xmlns="http://www.w3.org/2000/svg" viewBox="0 0 13 13" width="20" height="20">
	<style>
		tspan { white-space:pre }
		.shp0 { fill: #707070 } 
	</style>
	<path id="União 1" class="shp0" d="M9.51 13L9.51 9.51L13 9.51L13 13L9.51 13ZM4.76 13L4.76 9.51L8.24 9.51L8.24 13L4.76 13ZM0 13L0 9.51L3.49 9.51L3.49 13L0 13ZM9.51 8.24L9.51 4.76L13 4.76L13 8.24L9.51 8.24ZM4.76 8.24L4.76 4.76L8.24 4.76L8.24 8.24L4.76 8.24ZM0 8.24L0 4.76L3.49 4.76L3.49 8.24L0 8.24ZM9.51 3.49L9.51 0L13 0L13 3.49L9.51 3.49ZM4.76 3.49L4.76 0L8.24 0L8.24 3.49L4.76 3.49ZM0 3.49L0 0L3.49 0L3.49 3.49L0 3.49Z" />
</svg>