<svg xmlns="http://www.w3.org/2000/svg" viewBox="0 0 19 16" width="19" height="16">
	<style>
		tspan { white-space:pre }
		.shp0 { fill: #707070 } 
	</style>
	<path id="Caminho 16" fill-rule="evenodd" class="shp0" d="M18.3 8.32C17.16 10.45 12.34 14.17 10.59 15.46C10.41 15.6 10.18 15.67 9.96 15.67C9.74 15.67 9.52 15.6 9.33 15.46C7.59 14.17 2.77 10.45 1.63 8.32C0.23 5.7 1.06 2.35 3.48 0.83C4.28 0.34 5.15 0.1 6.01 0.1C7.51 0.1 8.98 0.83 9.96 2.15C10.94 0.83 12.41 0.1 13.92 0.1C14.78 0.1 15.65 0.34 16.44 0.83C18.87 2.35 19.7 5.7 18.3 8.32ZM16.01 1.53C15.37 1.13 14.65 0.92 13.92 0.92C12.63 0.92 11.43 1.55 10.62 2.63L9.96 3.52L9.3 2.63C8.49 1.55 7.29 0.92 6.01 0.92C5.28 0.92 4.56 1.13 3.92 1.53C1.85 2.82 1.15 5.69 2.35 7.93C3.21 9.53 6.77 12.53 9.82 14.81C9.87 14.85 9.93 14.85 9.96 14.85C10 14.85 10.05 14.85 10.1 14.81C13.15 12.53 16.72 9.53 17.58 7.93C18.78 5.69 18.07 2.82 16.01 1.53Z" />
</svg>