<svg xmlns="http://www.w3.org/2000/svg" viewBox="0 0 18 18" width="18" height="18">
	<style>
		tspan { white-space:pre }
		.shp0 { fill: #707070 } 
	</style>
	<path id="Caminho 15" fill-rule="evenodd" class="shp0" d="M17.96 17.01L17.38 17.59L13.53 13.73C12.14 14.99 10.31 15.76 8.3 15.76C4.01 15.76 0.51 12.27 0.51 7.97C0.51 3.68 4.01 0.19 8.3 0.19C12.59 0.19 16.09 3.68 16.09 7.97C16.09 9.96 15.33 11.77 14.1 13.15L17.96 17.01ZM15.27 7.97C15.27 4.13 12.14 1.01 8.3 1.01C4.46 1.01 1.33 4.13 1.33 7.97C1.33 11.82 4.46 14.94 8.3 14.94C12.14 14.94 15.27 11.82 15.27 7.97Z" />
</svg>