<svg xmlns="http://www.w3.org/2000/svg" viewBox="0 0 23 20" width="23" height="20">
	<style>
		tspan { white-space:pre }
		.shp0 { fill: #3e4043 } 
	</style>
	<path id="Icon awesome-list" class="shp0" d="M4.17 14.62L1.48 14.62C1.11 14.62 0.81 14.94 0.81 15.35L0.81 18.27C0.81 18.67 1.11 19 1.48 19L4.17 19C4.54 19 4.84 18.67 4.84 18.27L4.84 15.35C4.84 14.94 4.54 14.62 4.17 14.62ZM4.17 0L1.48 0C1.11 0 0.81 0.33 0.81 0.73L0.81 3.65C0.81 4.06 1.11 4.38 1.48 4.38L4.17 4.38C4.54 4.38 4.84 4.06 4.84 3.65L4.84 0.73C4.84 0.33 4.54 0 4.17 0ZM4.17 7.31L1.48 7.31C1.11 7.31 0.81 7.64 0.81 8.04L0.81 10.96C0.81 11.37 1.11 11.69 1.48 11.69L4.17 11.69C4.54 11.69 4.84 11.37 4.84 10.96L4.84 8.04C4.84 7.64 4.54 7.31 4.17 7.31ZM21.65 15.35L8.2 15.35C7.83 15.35 7.53 15.67 7.53 16.08L7.53 17.54C7.53 17.94 7.83 18.27 8.2 18.27L21.65 18.27C22.02 18.27 22.33 17.94 22.33 17.54L22.33 16.08C22.33 15.67 22.02 15.35 21.65 15.35ZM21.65 0.73L8.2 0.73C7.83 0.73 7.53 1.06 7.53 1.46L7.53 2.92C7.53 3.33 7.83 3.65 8.2 3.65L21.65 3.65C22.02 3.65 22.33 3.33 22.33 2.92L22.33 1.46C22.33 1.06 22.02 0.73 21.65 0.73ZM21.65 8.04L8.2 8.04C7.83 8.04 7.53 8.37 7.53 8.77L7.53 10.23C7.53 10.63 7.83 10.96 8.2 10.96L21.65 10.96C22.02 10.96 22.33 10.63 22.33 10.23L22.33 8.77C22.33 8.37 22.02 8.04 21.65 8.04Z" />
</svg>