<svg xmlns="http://www.w3.org/2000/svg" viewBox="0 0 21 21" width="21" height="21">
	<style>
		tspan { white-space:pre }
		.shp0 { fill: #707070 } 
	</style>
	<path id="Caminho 17" fill-rule="evenodd" class="shp0" d="M20.41 7.15L20.41 14.44C20.41 17.85 17.63 20.63 14.22 20.63L6.93 20.63C3.51 20.63 0.74 17.85 0.74 14.44L0.74 7.15C0.74 3.74 3.51 0.96 6.93 0.96L14.22 0.96C17.63 0.96 20.41 3.74 20.41 7.15ZM19.59 7.15C19.59 4.19 17.18 1.78 14.22 1.78L6.93 1.78C3.97 1.78 1.56 4.19 1.56 7.15L1.56 14.44C1.56 17.4 3.97 19.81 6.93 19.81L14.22 19.81C17.18 19.81 19.59 17.4 19.59 14.44L19.59 7.15ZM10.98 10.38L15.08 10.38L15.08 11.2L10.98 11.2L10.98 15.3L10.16 15.3L10.16 11.2L6.06 11.2L6.06 10.38L10.16 10.38L10.16 6.29L10.98 6.29L10.98 10.38Z" />
</svg>