<svg xmlns="http://www.w3.org/2000/svg" viewBox="0 0 20 18" width="20" height="18">
	<style>
		tspan { white-space:pre }
		.shp0 { fill: #9508cd } 
	</style>
	<path 
		id="profile"
		class="shp0"
		fill-rule="evenodd"
		d="M19 16.49L19 17.23C19 17.49 18.8 17.61 18.61 17.61L0.54 17.61C0.35 17.61 0.15 17.49 0.15 17.23L0.15 16.49C0.15 13.71 2.4 11.47 5.17 11.47L13.98 11.47C16.75 11.47 19 13.71 19 16.49ZM14.9 5.33C14.9 6.53 14.5 7.64 13.82 8.54C12.85 9.82 11.31 10.65 9.58 10.65C7.85 10.65 6.31 9.82 5.33 8.54C4.65 7.64 4.25 6.53 4.25 5.33C4.25 2.39 6.64 0 9.58 0C12.51 0 14.9 2.39 14.9 5.33Z" 
	/>
</svg>