<svg xmlns="http://www.w3.org/2000/svg" viewBox="0 0 20 22" width="20" height="22">
	<style>
		tspan { white-space:pre }
		.shp0 { fill: #3e4043 } 
	</style>
	<path id="Icon material-perm-contact-calendar" fill-rule="evenodd" class="shp0" d="M19.17 5L19.17 19C19.17 20.1 18.25 21 17.13 21L2.87 21C1.74 21 0.83 20.1 0.83 19L0.83 5C0.83 3.9 1.74 3 2.87 3L3.89 3L3.89 1L5.93 1L5.93 3L14.07 3L14.07 1L16.11 1L16.11 3L17.13 3C18.25 3 19.17 3.9 19.17 5ZM6.94 9C6.94 10.66 8.31 12 10 12C11.69 12 13.06 10.66 13.06 9C13.06 7.34 11.69 6 10 6C8.31 6 6.94 7.34 6.94 9ZM16.11 17C16.11 15 12.04 13.9 10 13.9C7.96 13.9 3.89 15 3.89 17L3.89 18L16.11 18L16.11 17Z" />
</svg>